<svg width="82" height="82" viewBox="0 0 82 82" fill="none" xmlns="http://www.w3.org/2000/svg">
<circle cx="41" cy="41" r="39.5" stroke="#94A684" stroke-width="3"/>
<path fill-rule="evenodd" clip-rule="evenodd" d="M42.4374 13C42.4374 12.1716 41.7658 11.5 40.9374 11.5C40.1089 11.5 39.4374 12.1716 39.4374 13V31.9619L25.0607 17.5852C24.4749 16.9994 23.5251 16.9994 22.9393 17.5852C22.3536 18.1709 22.3536 19.1207 22.9393 19.7065L39.4374 36.2045V68.0227H35.4846C34.6561 68.0227 33.9846 68.6942 33.9846 69.5227C33.9846 70.3511 34.6561 71.0227 35.4846 71.0227H46.7121C47.5405 71.0227 48.2121 70.3511 48.2121 69.5227C48.2121 68.6942 47.5405 68.0227 46.7121 68.0227H42.4374V36.2047L58.9356 19.7065C59.5214 19.1207 59.5214 18.1709 58.9356 17.5852C58.3498 16.9994 57.4001 16.9994 56.8143 17.5852L42.4374 31.9621V13ZM28.5851 11.9393C29.1709 11.3536 30.1207 11.3536 30.7064 11.9393L36.3523 17.5852C36.9381 18.1709 36.9381 19.1207 36.3523 19.7065C35.7665 20.2923 34.8167 20.2923 34.2309 19.7065L28.5851 14.0607C27.9993 13.4749 27.9993 12.5251 28.5851 11.9393ZM53.2897 14.0607L47.6439 19.7065C47.0581 20.2923 46.1084 20.2923 45.5226 19.7065C44.9368 19.1207 44.9368 18.1709 45.5226 17.5852L51.1684 11.9393C51.7542 11.3536 52.7039 11.3536 53.2897 11.9393C53.8755 12.5251 53.8755 13.4749 53.2897 14.0607Z" fill="#829175"/>
</svg>
