<svg width="38" height="38" viewBox="0 0 38 38" fill="none" xmlns="http://www.w3.org/2000/svg">
<g filter="url(#filter0_d_154_655)">
<path d="M19 25C24.5228 25 29 20.5228 29 15C29 9.47715 24.5228 5 19 5C13.4772 5 9 9.47715 9 15C9 20.5228 13.4772 25 19 25Z" stroke="#94A684" stroke-width="2" stroke-linecap="round" stroke-linejoin="round"/>
<path d="M9 15H29" stroke="#94A684" stroke-width="2" stroke-linecap="round" stroke-linejoin="round"/>
<path d="M19 5C21.5013 7.73835 22.9228 11.292 23 15C22.9228 18.708 21.5013 22.2616 19 25C16.4987 22.2616 15.0772 18.708 15 15C15.0772 11.292 16.4987 7.73835 19 5Z" stroke="#94A684" stroke-width="2" stroke-linecap="round" stroke-linejoin="round"/>
</g>
<defs>
<filter id="filter0_d_154_655" x="-1" y="-1" width="40" height="40" filterUnits="userSpaceOnUse" color-interpolation-filters="sRGB">
<feFlood flood-opacity="0" result="BackgroundImageFix"/>
<feColorMatrix in="SourceAlpha" type="matrix" values="0 0 0 0 0 0 0 0 0 0 0 0 0 0 0 0 0 0 127 0" result="hardAlpha"/>
<feOffset dy="4"/>
<feGaussianBlur stdDeviation="4"/>
<feComposite in2="hardAlpha" operator="out"/>
<feColorMatrix type="matrix" values="0 0 0 0 0 0 0 0 0 0 0 0 0 0 0 0 0 0 0.15 0"/>
<feBlend mode="normal" in2="BackgroundImageFix" result="effect1_dropShadow_154_655"/>
<feBlend mode="normal" in="SourceGraphic" in2="effect1_dropShadow_154_655" result="shape"/>
</filter>
</defs>
</svg>
