<svg width="24" height="20" viewBox="0 0 24 20" fill="none" xmlns="http://www.w3.org/2000/svg">
<path d="M23 1.03819C22.0424 1.71367 20.9821 2.2303 19.86 2.56819C19.2577 1.8757 18.4573 1.38488 17.567 1.16212C16.6767 0.939353 15.7395 0.995389 14.8821 1.32265C14.0247 1.6499 13.2884 2.23259 12.773 2.99191C12.2575 3.75122 11.9877 4.65053 12 5.56819V6.56819C10.2426 6.61376 8.50127 6.22401 6.93101 5.43364C5.36074 4.64327 4.01032 3.47683 3 2.03819C3 2.03819 -1 11.0382 8 15.0382C5.94053 16.4362 3.48716 17.1371 1 17.0382C10 22.0382 21 17.0382 21 5.53819C20.9991 5.25965 20.9723 4.98179 20.92 4.70819C21.9406 3.70169 22.6608 2.43091 23 1.03819Z" stroke="#94A684" stroke-width="2" stroke-linecap="round" stroke-linejoin="round"/>
</svg>
